# Blender 5.0.1
# www.blender.org
mtllib button1.mtl
o Button.001
v 0.770000 1.100000 -0.250000
v 0.770000 -1.100000 -0.250000
v 0.700000 1.000000 0.250000
v -0.585000 0.140000 0.155000
v -0.572000 -0.902000 0.200000
v -0.585000 0.860000 0.155000
v 0.700000 -1.000000 0.250000
v -0.572000 -0.198000 0.200000
v -0.770000 1.100000 -0.250000
v 0.585000 0.140000 0.155000
v -0.770000 -1.100000 -0.250000
v 0.585000 0.860000 0.155000
v -0.700000 1.000000 0.250000
v 0.572000 -0.902000 0.200000
v -0.700000 -1.000000 0.250000
v 0.572000 -0.198000 0.200000
v 0.650000 -0.150000 0.250000
v -0.650000 -0.950000 0.250000
v -0.650000 -0.150000 0.250000
v 0.650000 -0.950000 0.250000
v -0.585000 0.140000 0.245000
v -0.585000 0.860000 0.245000
v 0.585000 0.860000 0.245000
v 0.585000 0.140000 0.245000
v 0.000000 -0.250000 0.200000
v 0.000000 -0.286000 0.387539
v 0.259808 -0.400000 0.200000
v 0.228631 -0.418000 0.387539
v 0.259808 -0.700000 0.200000
v 0.228631 -0.682000 0.387539
v 0.000000 -0.850000 0.200000
v 0.000000 -0.814000 0.387539
v -0.259808 -0.700000 0.200000
v -0.228631 -0.682000 0.387539
v -0.259808 -0.400000 0.200000
v -0.228631 -0.418000 0.387539
vn -0.0000 0.9806 0.1961
vn -0.0000 0.0096 1.0000
vn -0.0000 -0.0357 0.9994
vn -0.0000 -0.0000 1.0000
vn -0.9903 -0.0000 0.1386
vn -0.0000 -0.9806 0.1961
vn 0.9903 -0.0000 0.1386
vn 0.5397 -0.0000 0.8419
vn -0.5397 -0.0000 0.8419
vn -0.0000 0.7214 0.6925
vn -0.0000 -0.7214 0.6925
vn 1.0000 -0.0000 -0.0000
vn -1.0000 -0.0000 -0.0000
vn -0.0000 1.0000 -0.0000
vn -0.0000 -1.0000 -0.0000
vn 0.4932 0.8543 0.1640
vn 0.9865 -0.0000 0.1640
vn 0.4932 -0.8543 0.1640
vn -0.4932 -0.8543 0.1640
vn -0.9865 -0.0000 0.1640
vn -0.4932 0.8543 0.1640
vt 0.703450 0.791899
vt 0.703450 0.341890
vt 0.851725 0.362345
vt 0.851725 0.771444
vt 0.409099 0.000000
vt 0.409099 0.584423
vt 0.394489 0.569812
vt 0.394489 0.336043
vt 0.014611 0.336043
vt 0.014611 0.569812
vt 0.000000 0.584423
vt 0.000000 0.000000
vt 0.033605 0.040915
vt 0.033605 0.251308
vt 0.375495 0.251308
vt 0.375495 0.040915
vt 0.409099 0.613649
vt 0.409099 0.029221
vt 0.556274 0.000000
vt 0.556274 0.642870
vt 1.000000 0.341890
vt 1.000000 0.791899
vt 0.556274 0.642870
vt 0.556274 0.000000
vt 0.703450 0.029221
vt 0.703450 0.613649
vt 0.371696 0.555843
vt 0.371696 0.350126
vt 0.037403 0.555843
vt 0.037403 0.350126
vt 0.068264 0.964301
vt 0.052343 0.941508
vt 0.052343 0.607216
vt 0.068264 0.584423
vt 0.084186 0.607216
vt 0.084186 0.941508
vt 0.068264 0.964301
vt 0.068264 0.584423
vt 0.084186 0.794817
vt 0.084186 0.584423
vt 0.110422 0.584423
vt 0.110422 0.794817
vt 0.913842 0.000000
vt 0.913842 0.341890
vt 0.703450 0.000000
vt 0.136657 0.584423
vt 0.136657 0.794817
vt 0.110422 0.794817
vt 0.110422 0.584423
vt 0.026171 0.926313
vt -0.000000 0.926313
vt 0.000000 0.584423
vt 0.026171 0.584423
vt 0.052343 0.584423
vt 0.052343 0.926313
vt 0.026171 0.926313
vt 0.026171 0.584423
vt 0.775849 -0.000000
vt 0.983332 0.039645
vt 0.955806 0.330372
vt 0.744569 0.330372
vt 0.983332 0.479645
vt 0.775849 0.500000
vt 0.537086 0.500000
vt 0.744569 0.539645
vt 0.717043 0.830372
vt 0.505806 0.830372
vt 0.744569 0.979645
vt 0.537086 1.000000
vt 0.000000 0.146014
vt 0.252903 0.000000
vt 0.505806 0.146014
vt 0.505806 0.438041
vt 0.252903 0.584055
vt 0.000000 0.438041
vt 0.713289 0.500000
vt 0.505806 0.460355
vt 0.533332 0.169628
vt 0.744569 0.169628
vt 0.505806 0.020355
vt 0.713289 0.000000
s 0
usemtl Material
f 1/1/1 9/2/1 13/3/1 3/4/1
f 13/5/2 15/6/2 18/7/2 19/8/2 17/9/2 20/10/2 7/11/2 3/12/2 23/13/2 24/14/2 21/15/2 22/16/2
f 23/13/3 3/12/3 13/5/3 22/16/3
f 18/7/4 15/6/4 7/11/4 20/10/4
f 15/17/5 13/18/5 9/19/5 11/20/5
f 11/21/6 2/22/6 7/4/6 15/3/6
f 2/23/7 1/24/7 3/25/7 7/26/7
f 5/27/8 8/28/8 19/8/8 18/7/8
f 5/27/4 14/29/4 16/30/4 8/28/4
f 16/30/9 14/29/9 20/10/9 17/9/9
f 20/31/10 14/32/10 5/33/10 18/34/10
f 8/35/11 16/36/11 17/37/11 19/38/11
f 4/39/12 6/40/12 22/41/12 21/42/12
f 4/43/4 10/44/4 12/2/4 6/45/4
f 12/46/13 10/47/13 24/48/13 23/49/13
f 24/50/14 10/51/14 4/52/14 21/53/14
f 6/54/15 12/55/15 23/56/15 22/57/15
usemtl 
f 25/58/16 26/59/16 28/60/16 27/61/16
f 27/61/17 28/60/17 30/62/17 29/63/17
f 29/64/18 30/65/18 32/66/18 31/67/18
f 31/67/19 32/66/19 34/68/19 33/69/19
f 28/70/4 26/71/4 36/72/4 34/73/4 32/74/4 30/75/4
f 33/76/20 34/77/20 36/78/20 35/79/20
f 35/79/21 36/78/21 26/80/21 25/81/21
